<svg version="1.0" xmlns="http://www.w3.org/2000/svg" width="600" height="600"
  viewBox="0 0 512 512">
  <path
    d="M149.9 1.9c-6.4 2.1-13.5 6.6-17.4 11.3-2.5 3-6.6 10.8-7.9 15-.5 1.6-2.2 1.8-16.4 1.8-14.3 0-16.1-.2-17.6-1.9-.9-1-4.5-3.2-7.9-4.7l-6.2-2.9h-48l-6.1 2.8C14.7 26.9 7 34.6 3.3 42.5l-2.8 6-.3 38.6c-.3 42.6.1 46.5 5.7 57.7 3.4 6.8 10.6 15.1 16.7 19.3l4.4 3v99.8l-3.1 2.2c-4.9 3.4-11.5 13.2-13.9 20.5-1.8 5.4-2.2 8.3-1.8 16.2.3 8.3.8 10.7 3.5 16.5 3.6 7.5 11.4 16.4 17.7 20.1 5.6 3.3 12.8 5.5 20.6 6.4l6.5.7 22.1 26.4 22.2 26.4-2.9 4.1c-7.2 10.1-5.1 32.6 4.3 48.4 7.2 11.9 22.7 22.8 36.7 25.8 3.6.7 11.9 1.4 18.4 1.4 10.3 0 11.8.2 12.3 1.7 2.8 9.3 8.7 17.4 16.2 22.1 9.6 6.2 10.1 6.2 70.3 6.2 52 0 55-.1 61.2-2 7-2.2 14.9-7.7 18.8-13.1 1.2-1.7 3.3-5.7 4.5-8.8l2.3-5.6 14.3-.6c15.9-.6 20.2-1.6 30-6.5 17.3-8.7 28.8-25.8 30.8-45.9 1.6-15.8-1.9-24.5-11.9-29.7l-5.3-2.8H270.9l-2.4 2.5c-3.2 3.1-3.3 7.4-.2 10.3l2.3 2.2h63.6c62.8 0 63.6 0 66.2 2.1 2.4 1.9 2.6 2.6 2.6 9.4 0 21.6-14.3 38.9-35.1 42.5-4.5.8-39.7 1-115.9.8l-109.5-.3-5.7-2.3c-17.1-6.9-27.8-22.4-27.8-40.2 0-5.2.4-7.3 1.9-9.1l1.9-2.4 64.3-.3c64.3-.2 64.3-.2 66.6-2.4 3.1-2.9 3-7.2-.2-10.3l-2.4-2.5h-79.6l-33.2-39.6c-32.4-38.7-33.1-39.6-32.2-42.7 1.6-5.6 1-18-1.1-25-2.2-7.1-8.9-17.1-13.9-20.6l-3.1-2.2v-99.8l4.4-3c6.1-4.2 13.3-12.5 16.7-19.3 4.2-8.2 5.9-16.7 5.9-29.1V105H122.7l.5 19.7c.5 17.1.9 20.6 2.7 25.4 4.4 11.5 12.5 19.3 24 22.9 6.1 1.9 9 2 106.1 2 97.3 0 100-.1 106.3-2 11.2-3.5 19.3-11.3 23.9-23.1 1.7-4.6 2.1-8.3 2.6-25.2l.5-19.7H407v10.7c0 12.4 1.7 20.9 5.9 29.1 3.4 6.8 10.6 15.1 16.7 19.3l4.4 3v52.7l-6.5 6.6-6.5 6.6h-23c-22.3 0-23 .1-25 2.2-2.7 3-2.6 7.3.5 10.3 2.4 2.5 2.6 2.5 21.7 2.5h19.3v19h-106v-19h18.8c18.6 0 18.8 0 21.2-2.5 3.1-3 3.2-7.3.5-10.3-2-2.1-2.7-2.2-25.9-2.2-22.5 0-23.9-.1-25.6-2-2.5-2.8-10.3-7.6-14.6-8.9l-3.5-1.1-1.1-8.6c-1.3-10.8-4.3-15.6-12.2-19.7-7.3-3.6-13.1-3.6-20.2.1-7.8 4.1-10.8 8.9-12.3 19.6l-1.1 8.6-5.2 3c-5.6 3.2-9.2 7.3-12 13.6-2.5 5.7-2.5 34.1 0 39.8 2.8 6.4 6.5 10.5 12.3 13.7 4.9 2.8 5.4 3.4 5.4 6.6 0 2.9-1.1 4.7-6.5 10.5-8.8 9.6-11.6 15.5-12.8 27.9-2.2 21.1 1.5 33.8 11.7 40.6 7 4.7 10.2 5.3 30.6 5.3 20.4 0 23.6-.6 30.6-5.3 10.2-6.8 13.9-19.5 11.7-40.6-1.2-12.4-4-18.3-12.8-27.9-5.4-5.9-6.5-7.6-6.5-10.5 0-3.3.3-3.6 4.8-5.1 2.6-.9 7.1-3.4 10-5.6l5.2-4h122.8l6.1 6c3.9 4 8.4 7.2 12.8 9.3 6.5 3.1 7.4 3.2 18.8 3.2 11.7 0 12.2-.1 19-3.4 9.1-4.5 17.1-12.5 21.6-21.6 3.3-6.8 3.4-7.3 3.4-19 0-11.4-.1-12.3-3.2-18.8-2.1-4.4-5.3-8.9-9.3-12.8l-6-6.1v-52.7l4.4-3c6.1-4.2 13.3-12.5 16.7-19.3 5.6-11.2 6-15.1 5.7-57.7l-.3-38.6-2.8-6.1c-3.6-7.7-11.3-15.4-19.2-19.1l-6-2.8h-48l-6 2.8c-3.3 1.6-6.9 3.7-8.1 4.8-1.9 1.8-3.3 1.9-17.8 1.7l-15.7-.3-2.3-5.6c-1.2-3.1-3.3-7.1-4.5-8.8-3.9-5.4-11.8-10.9-18.8-13.1-6.4-2-8.9-2-106.7-1.9-93.3 0-100.5.1-105.7 1.8zm207.7 14.6c3.1.9 6.3 2.8 8.6 5.2 7 7.2 6.8 5.1 6.8 65.8 0 60.7.2 58.6-6.8 65.8-6.8 7-2.4 6.7-109.9 6.7-67 0-97.8-.3-100.8-1.1-5.5-1.4-12.2-7-14.6-12.3-1.7-3.8-1.9-7.8-1.9-59.1 0-51.3.2-55.3 1.9-59.1 2.3-5 9-10.9 13.9-12.2 2.3-.6 41.2-1 100.8-1.1 82.7-.1 97.8.1 102 1.4zM77 37.4c4.9 2.6 7.9 5.5 10.3 10.1 2.1 3.9 2.2 5 2.2 43.1v39l-3.8 7.6c-4.2 8.7-9.2 13.6-17.7 17.7-4.8 2.3-6.8 2.6-15.5 2.6-8.8 0-10.7-.3-15.7-2.7-10.3-4.8-18.1-14.7-20.8-26-1.3-5.7-1.3-72.2 0-76.9 1.3-4.5 4.7-9.6 8.1-12.1 5.7-4.2 9.4-4.8 29.9-4.5 16.8.2 20 .5 23 2.1zm404.4-1.2c2.5.8 5.9 3.1 8.6 5.8 2.7 2.7 5 6.1 5.8 8.6 1.9 6.6 1.7 72.1-.3 79.9-4.2 16.4-18.8 27.5-36 27.5s-31.8-11.1-36-27.5c-2-7.8-2.2-73.3-.3-79.9 1.5-5 8.9-12.7 13.8-14.3 5-1.6 39.2-1.6 44.4-.1zM123 67.5V90h-18V70.1c0-11-.4-21.1-1-22.5l-1-2.6h20v22.5zm284.9-19.3c-.5 1.8-.9 12-.9 22.5V90h-18V45h19.9l-1 3.2zM62 216.2v42.6H43V173.5h19v42.7zM469 193v19.5h-19v-39h19V193zm-208.6 14.1c2.2 1.8 2.6 2.8 2.6 7.5v5.4h-14v-5.4c0-4.7.4-5.7 2.6-7.5 1.5-1.2 3.4-2.1 4.4-2.1 1 0 2.9.9 4.4 2.1zm212.4 23.8c17.7 9.1 21.7 33.5 7.6 47.5-14 14.1-38.5 10.1-47.5-7.6-2.6-5.1-3.6-15.5-2-21.4 2.3-8.7 9.8-16.7 18.8-20 5.6-2.1 17.7-1.3 23.1 1.5zm-190.7 7.3c2.5 1.5 5.9 4.6 7.5 6.9 2.6 3.8 2.9 5 2.9 12.4s-.3 8.6-2.9 12.4c-1.6 2.3-5 5.4-7.5 6.9-4.5 2.6-5 2.7-23.8 3-28.4.5-29.3-.2-29.3-22.3s.7-22.7 29-22.3c19.1.3 19.6.4 24.1 3zM64.2 276.7c6.2 2.8 11.5 7.7 14.6 13.7 2.3 4.4 2.7 6.3 2.7 13.6 0 7.7-.3 9-3.1 14-5.4 9.7-14.8 15.1-25.9 15.1-11.1 0-20.5-5.4-25.9-15.1-2.8-5-3.1-6.3-3.1-14 0-7.2.4-9.2 2.7-13.5 7.4-14.1 23.8-20 38-13.8zm199.2 23.9c.8 7.2 1.6 8.5 9.7 16.9 9.2 9.6 9.9 11.5 9.9 28V359l-3.4 3.8-3.4 3.7h-40.4l-3.4-3.7-3.4-3.8v-13.5c0-16.5.7-18.4 9.9-28 8.1-8.4 8.9-9.7 9.7-16.9l.7-5.6h13.4l.7 5.6zM115 365.7c12.8 15.3 24 28.6 24.8 29.5 1.4 1.7.8 1.8-10.9 1.8h-12.4l-21.8-26.1c-12.1-14.3-21.7-26.2-21.5-26.3.1-.2 2.3-1.7 4.8-3.3 2.5-1.7 5.6-4.3 7-5.8l2.5-2.6 2.1 2.4c1.2 1.4 12.6 15 25.4 30.4zm211 117.6c0 2.2-6.1 8.7-10.3 11-3.9 2-5.7 2.2-29 2.5l-24.9.4-2.5-2.4c-2.7-2.5-9.3-11.2-9.3-12.2 0-.3 17.1-.6 38-.6 30.1 0 38 .3 38 1.3z" />
  <path
    d="M161 32.2c-1.8 1.3-4.3 3.6-5.4 5.1-2.1 2.8-2.1 3.7-2.1 50.2s0 47.4 2.1 50.2c1.1 1.5 3.6 3.8 5.4 5l3.3 2.3h91.4c101.3 0 94.6.4 100-6.7l2.8-3.6V40.3l-2.8-3.6c-5.2-6.9-3.7-6.7-53.1-6.7h-44.5l-2 2.6c-2.8 3.5-2.6 6.9.4 9.9l2.4 2.5H343v85H169V45h60.7l2.1-2.3c2.8-3 2.9-8 .2-10.7-1.9-1.9-3.3-2-34.9-2-32.4 0-32.8 0-36.1 2.2z" />
  <path
    d="M190.3 71c-1.2.5-2.6 1.8-3.2 2.9-1.2 2.1-1.5 16.9-.5 19.6 1.1 2.7 6.2 4.5 9.6 3.3 4-1.4 4.8-3.5 4.8-13.1 0-6.6-.4-8.9-1.7-10.5-2.1-2.5-6-3.5-9-2.2zM315.3 71c-3.4 1.4-4.3 4.2-4.3 13.4 0 10 1.5 12.6 7.5 12.6 5.8 0 7.5-2.9 7.5-12.6 0-9.8-.4-11-4.1-12.9-3.2-1.7-3.5-1.7-6.6-.5zM234.5 84.5c-3.7 3.6-3.3 7.3 1.3 11.7 11.2 11.1 30.6 10.9 40.7-.3 4.2-4.6 4.5-8 1-11.4-3-3.1-6.5-3.2-10.2-.1C263 88 260.5 89 256 89c-4.5 0-7-1-11.3-4.6-3.7-3.1-7.2-3-10.2.1zM45.7 99.6c-14.9 4.6-20.6 23.6-10.6 35.7 8.9 10.8 25.8 10.9 34.7.2 10.2-12.4 4.5-31.4-10.9-35.9-6.3-1.9-7-1.9-13.2 0zm12.2 17c2.7 3.4 2.7 6.4.1 9.2-4.2 4.5-13 1.5-13-4.4 0-3.7 3.7-7.4 7.5-7.4 2.4 0 3.9.7 5.4 2.6zM455 99.2c-6.5 1.1-12 5.3-15.2 11.7-6.8 13.3.4 28.5 15 32.1 9.8 2.3 20.4-3 24.8-12.3 3.2-7 3.1-12.9-.3-19.8-4.7-9.1-13.9-13.5-24.3-11.7zm9.7 17c5.5 5.2-.4 14.3-7.6 11.6-5.2-1.9-6.7-7.5-2.9-11.5 2.8-3 7.4-3 10.5-.1zM454.2 252.3c-4.6 4.9-1.2 12.7 5.4 12.7 3.9 0 7.4-3.6 7.4-7.6 0-6.5-8.4-9.8-12.8-5.1zM47.6 298.1c-5.5 4.3-2.2 13.3 4.9 13.3 4.6 0 7.5-3.1 7.5-7.9 0-3.8-3.7-7.5-7.5-7.5-1.2 0-3.4.9-4.9 2.1z" />
</svg>